<svg xmlns="http://www.w3.org/2000/svg" version="1.1" xmlns:xlink="http://www.w3.org/1999/xlink" xmlns:svgjs="http://svgjs.dev/svgjs" width="2000" height="1247" viewBox="0 0 2000 1247"><g transform="matrix(1,0,0,1,-1.2121212121212466,0.504858299595071)"><svg viewBox="0 0 396 247" data-background-color="#ffffff" preserveAspectRatio="xMidYMid meet" height="1247" width="2000" xmlns="http://www.w3.org/2000/svg" xmlns:xlink="http://www.w3.org/1999/xlink"><g id="tight-bounds" transform="matrix(1,0,0,1,0.2400000000000091,-0.09999999999999432)"><svg viewBox="0 0 395.52 247.2" height="247.2" width="395.52"><g><svg></svg></g><g><svg viewBox="0 0 395.52 247.2" height="247.2" width="395.52"><g transform="matrix(1,0,0,1,75.54432,89.2138149298977)"><svg viewBox="0 0 244.43135999999998 68.77237014020461" height="68.77237014020461" width="244.43135999999998"><g><svg viewBox="0 0 244.43135999999998 68.77237014020461" height="68.77237014020461" width="244.43135999999998"><g><svg viewBox="0 0 244.43135999999998 68.77237014020461" height="68.77237014020461" width="244.43135999999998"><g><svg viewBox="0 0 244.43135999999998 68.77237014020461" height="68.77237014020461" width="244.43135999999998"><g id="textblocktransform"><svg viewBox="0 0 244.43135999999998 68.77237014020461" height="68.77237014020461" width="244.43135999999998" id="textblock"><g><svg viewBox="0 0 244.43135999999998 68.77237014020461" height="68.77237014020461" width="244.43135999999998"><g transform="matrix(1,0,0,1,0,0)"><svg width="244.43135999999998" viewBox="3.25 -35.5 128.85 36.26" height="68.77237014020461" data-palette-color="#1976d2"><path d="M27.25-7.01L27.25 0 3.25 0 3.25-35.01 27.25-35.01 27.25-28 10.25-28 10.25-21 21.75-21 21.75-13.99 10.25-13.99 10.25-7.01 27.25-7.01ZM55.54-9.69L59.25-3.59Q56.81-1.49 53.78-0.37 50.75 0.76 47.51 0.76L47.51 0.76Q45.02 0.76 42.71 0.11 40.4-0.54 38.39-1.72 36.37-2.91 34.71-4.57 33.05-6.23 31.87-8.24 30.69-10.25 30.04-12.56 29.39-14.87 29.39-17.36L29.39-17.36Q29.39-19.85 30.04-22.17 30.69-24.49 31.87-26.5 33.05-28.52 34.71-30.18 36.37-31.84 38.39-33.02 40.4-34.2 42.71-34.85 45.02-35.5 47.51-35.5L47.51-35.5Q50.75-35.5 53.78-34.39 56.81-33.28 59.25-31.15L59.25-31.15 55.54-25.05Q54-26.71 51.9-27.6 49.8-28.49 47.51-28.49L47.51-28.49Q45.19-28.49 43.16-27.61 41.14-26.73 39.62-25.23 38.11-23.73 37.23-21.69 36.35-19.65 36.35-17.36L36.35-17.36Q36.35-15.06 37.23-13.05 38.11-11.04 39.62-9.52 41.14-8.01 43.16-7.13 45.19-6.25 47.51-6.25L47.51-6.25Q49.8-6.25 51.9-7.14 54-8.03 55.54-9.69L55.54-9.69ZM70.31-13.99L70.31 0 63.3 0 63.3-35.01 70.31-35.01 70.31-21 84.3-21 84.3-35.01 91.3-35.01 91.3 0 84.3 0 84.3-13.99 70.31-13.99ZM132.1-17.36L132.1-17.36Q132.1-14.87 131.45-12.56 130.8-10.25 129.63-8.24 128.46-6.23 126.8-4.57 125.14-2.91 123.14-1.72 121.14-0.54 118.82 0.11 116.5 0.76 114.01 0.76L114.01 0.76Q111.52 0.76 109.21 0.11 106.9-0.54 104.89-1.72 102.87-2.91 101.21-4.57 99.55-6.23 98.37-8.24 97.18-10.25 96.54-12.56 95.89-14.87 95.89-17.36L95.89-17.36Q95.89-19.85 96.54-22.17 97.18-24.49 98.37-26.49 99.55-28.49 101.21-30.15 102.87-31.81 104.89-32.98 106.9-34.16 109.21-34.8 111.52-35.45 114.01-35.45L114.01-35.45Q116.5-35.45 118.82-34.8 121.14-34.16 123.14-32.98 125.14-31.81 126.8-30.15 128.46-28.49 129.63-26.49 130.8-24.49 131.45-22.17 132.1-19.85 132.1-17.36ZM125.14-17.36L125.14-17.36Q125.14-19.65 124.26-21.69 123.38-23.73 121.88-25.23 120.38-26.73 118.34-27.61 116.3-28.49 114.01-28.49L114.01-28.49Q111.69-28.49 109.66-27.61 107.63-26.73 106.12-25.23 104.61-23.73 103.73-21.69 102.85-19.65 102.85-17.36L102.85-17.36Q102.85-15.06 103.73-13.05 104.61-11.04 106.12-9.52 107.63-8.01 109.66-7.13 111.69-6.25 114.01-6.25L114.01-6.25Q116.3-6.25 118.34-7.13 120.38-8.01 121.88-9.52 123.38-11.04 124.26-13.05 125.14-15.06 125.14-17.36Z" opacity="1" transform="matrix(1,0,0,1,0,0)" fill="#ffffff" class="wordmark-text-0" data-fill-palette-color="primary" id="text-0"></path></svg></g></svg></g></svg></g></svg></g></svg></g></svg></g></svg></g><path d="M204.904 83.214L204.904 26.073 9.851 26.073 9.851 221.127 204.904 221.127 204.904 163.986 198.702 163.986 198.702 214.925 16.053 214.925 16.053 32.275 198.702 32.275 198.702 83.214Z" fill="#ffffff" stroke="transparent" data-fill-palette-color="tertiary"></path></svg></g><defs></defs></svg><rect width="395.52" height="247.2" fill="none" stroke="none" visibility="hidden"></rect></g></svg></g></svg>